HIERARCHY
ROOT joint_Root
{
	OFFSET 0.0 0.0 0.0
	CHANNELS 6 Xposition Yposition Zposition Zrotation Xrotation Yrotation 
	JOINT Hips
	{
		OFFSET -17.1583 93.1646 452.98
		CHANNELS 6 Xposition Yposition Zposition Zrotation Xrotation Yrotation 
		JOINT Spine
		{
			OFFSET 15.7357 0.0 0.0
			CHANNELS 6 Xposition Yposition Zposition Zrotation Xrotation Yrotation 
			JOINT Chest
			{
				OFFSET 8.98455 -0.406207 0.0
				CHANNELS 6 Xposition Yposition Zposition Zrotation Xrotation Yrotation 
				JOINT Neck
				{
					OFFSET 16.3773 0.0 0.0
					CHANNELS 6 Xposition Yposition Zposition Zrotation Xrotation Yrotation 
					JOINT Head
					{
						OFFSET 6.45672 0.0 0.0
						CHANNELS 6 Xposition Yposition Zposition Zrotation Xrotation Yrotation 
						End Site
						{
							OFFSET 0.0 0.0 0.0
						}
					}
				}
				JOINT Shoulder_L
				{
					OFFSET 12.9942 -0.242716 4.98039
					CHANNELS 6 Xposition Yposition Zposition Zrotation Xrotation Yrotation 
					JOINT UpperArm_L
					{
						OFFSET 5.34809 0.0 0.0
						CHANNELS 6 Xposition Yposition Zposition Zrotation Xrotation Yrotation 
						JOINT LowerArm_L
						{
							OFFSET 24.3286 1.87007e-05 0.0
							CHANNELS 6 Xposition Yposition Zposition Zrotation Xrotation Yrotation 
							JOINT Hand_L
							{
								OFFSET 22.2916 0.0 0.0
								CHANNELS 6 Xposition Yposition Zposition Zrotation Xrotation Yrotation 
								End Site
								{
									OFFSET 0.0 0.0 0.0
								}
							}
						}
					}
				}
				JOINT Shoulder_R
				{
					OFFSET 12.9945 -0.242716 -4.98039
					CHANNELS 6 Xposition Yposition Zposition Zrotation Xrotation Yrotation 
					JOINT UpperArm_R
					{
						OFFSET -5.34813 0.0 0.0
						CHANNELS 6 Xposition Yposition Zposition Zrotation Xrotation Yrotation 
						JOINT LowerArm_R
						{
							OFFSET -24.3289 0.000322201 0.0
							CHANNELS 6 Xposition Yposition Zposition Zrotation Xrotation Yrotation 
							JOINT Hand_R
							{
								OFFSET -22.2915 -0.000108084 0.0
								CHANNELS 6 Xposition Yposition Zposition Zrotation Xrotation Yrotation 
								End Site
								{
									OFFSET 0.0 0.0 0.0
								}
							}
						}
					}
				}
			}
		}
		JOINT UpperLeg_L
		{
			OFFSET -2.19248 -6.46944 0.0
			CHANNELS 6 Xposition Yposition Zposition Zrotation Xrotation Yrotation 
			JOINT LowerLeg_L
			{
				OFFSET 39.0811 0.0 -1.23785e-05
				CHANNELS 6 Xposition Yposition Zposition Zrotation Xrotation Yrotation 
				JOINT Foot_L
				{
					OFFSET 40.9854 0.0 -1.26872e-05
					CHANNELS 6 Xposition Yposition Zposition Zrotation Xrotation Yrotation 
					JOINT Toes_L
					{
						OFFSET 11.7543 0.0 0.0
						CHANNELS 6 Xposition Yposition Zposition Zrotation Xrotation Yrotation 
						End Site
						{
							OFFSET 0.0 0.0 0.0
						}
					}
				}
			}
		}
		JOINT UpperLeg_R
		{
			OFFSET -2.19251 6.46944 0.0
			CHANNELS 6 Xposition Yposition Zposition Zrotation Xrotation Yrotation 
			JOINT LowerLeg_R
			{
				OFFSET -39.0811 -0.00228153 -0.0401928
				CHANNELS 6 Xposition Yposition Zposition Zrotation Xrotation Yrotation 
				JOINT Foot_R
				{
					OFFSET -40.9854 0.0 0.0
					CHANNELS 6 Xposition Yposition Zposition Zrotation Xrotation Yrotation 
					JOINT Toes_R
					{
						OFFSET -11.7543 0.0 0.0
						CHANNELS 6 Xposition Yposition Zposition Zrotation Xrotation Yrotation 
						End Site
						{
							OFFSET 0.0 0.0 0.0
						}
					}
				}
			}
		}
	}
}
MOTION
Frames:	6
Frame Time:	0.0333333
0.000000 0.000000 0.000000 0.000000 0.000000 -0.000000 -3.876530 92.167600 -1.282970 84.196100 -1.030900 2.629530 15.735700 0.000005 -0.000001 61.249800 87.861300 -58.978900 8.984550 -0.406207 -0.000000 -3.968110 -2.288390 4.465210 16.377300 -0.000001 -0.000001 8.645520 1.826290 7.452110 6.456720 -0.000001 -0.000000 4.937520 5.498390 18.790000 12.994200 -0.242716 4.980390 -91.913500 5.842290 -71.829100 5.348090 -0.000007 -0.000001 -74.192500 33.204300 2.140760 24.328600 0.000019 0.000005 12.563300 27.781100 -25.553800 22.291600 -0.000001 0.000005 -3.509380 4.961950 8.118410 12.994500 -0.242716 -4.980390 87.489200 7.173000 -70.649900 -5.348130 -0.000001 -0.000004 -66.788700 -2.508250 -10.049500 -24.328900 0.000322 -0.000009 18.298800 -21.776900 -138.286000 -22.291500 -0.000108 -0.000004 57.578800 5.641120 -14.222300 -2.192480 -6.469440 -0.000000 -171.908000 1.965400 -4.988290 39.081100 -0.000007 -0.000012 0.370111 -0.722106 27.138000 40.985400 -0.000006 -0.000013 0.020089 5.953760 -75.686200 11.754300 -0.000000 0.000003 0.000745 0.153964 -10.332700 -2.192510 6.469440 -0.000001 -170.057000 7.100950 -178.081000 -39.081100 -0.002282 -0.040193 0.062144 -0.222497 14.806600 -40.985400 0.000008 0.000006 3.015080 2.922190 -69.951500 -11.754300 -0.000006 -0.000006 -0.010205 0.272833 -5.488510
0.000000 0.000000 0.000000 0.000000 0.000000 -0.000000 -3.884800 92.164700 -1.272320 84.228700 -1.101670 2.538040 15.735700 0.000005 -0.000001 61.245600 87.876000 -59.006700 8.984550 -0.406207 -0.000000 -3.995060 -2.271780 4.401000 16.377300 -0.000001 -0.000001 8.639470 1.816990 7.393690 6.456720 -0.000001 -0.000000 4.929110 5.501580 18.841100 12.994200 -0.242716 4.980390 -91.921000 5.848690 -71.781800 5.348090 -0.000007 -0.000001 -74.182600 33.173900 2.099500 24.328600 0.000019 0.000005 12.533400 27.784400 -25.496600 22.291600 -0.000001 0.000005 -3.638240 4.963120 8.094040 12.994500 -0.242716 -4.980390 87.483600 7.189440 -70.650500 -5.348130 -0.000001 -0.000004 -66.806500 -2.472300 -9.983880 -24.328900 0.000322 -0.000009 18.212400 -21.611400 -138.224000 -22.291500 -0.000108 -0.000004 57.452900 5.640470 -14.165000 -2.192480 -6.469440 -0.000000 -171.938000 1.966190 -5.061380 39.081100 -0.000007 -0.000012 0.366850 -0.716505 27.113300 40.985400 -0.000006 -0.000013 0.000607 5.886620 -75.583000 11.754300 -0.000000 0.000003 0.000798 0.152901 -10.375800 -2.192510 6.469440 -0.000001 -170.069000 7.062600 -178.160000 -39.081100 -0.002282 -0.040193 0.064335 -0.230743 14.809300 -40.985400 0.000008 0.000006 3.168710 2.975320 -69.963400 -11.754300 -0.000006 -0.000006 -0.010168 0.272557 -5.499780
0.000000 0.000000 0.000000 0.000000 0.000000 -0.000000 -3.895770 92.175500 -1.264360 84.246600 -1.138180 2.538980 15.735700 0.000005 -0.000001 61.636800 87.866900 -59.424500 8.984550 -0.406207 -0.000000 -3.966180 -2.251680 4.349010 16.377300 -0.000001 -0.000001 8.665410 1.823950 7.351110 6.456720 -0.000001 -0.000000 4.897320 5.452660 18.799000 12.994200 -0.242716 4.980390 -91.926100 5.870310 -71.798700 5.348090 -0.000007 -0.000001 -74.204700 33.092600 2.140360 24.328600 0.000019 0.000005 12.556700 27.864700 -25.480100 22.291600 -0.000001 0.000005 -3.437920 4.960180 8.154750 12.994500 -0.242716 -4.980390 87.480100 7.197680 -70.646300 -5.348130 -0.000001 -0.000004 -66.804600 -2.443200 -9.868680 -24.328900 0.000322 -0.000009 17.962800 -21.281300 -138.226000 -22.291500 -0.000108 -0.000004 57.204800 5.641780 -14.276000 -2.192480 -6.469440 -0.000000 -171.954000 1.955390 -4.994270 39.081100 -0.000007 -0.000012 0.366700 -0.718664 27.034000 40.985400 -0.000006 -0.000013 -0.020462 5.846900 -75.639400 11.754300 -0.000000 0.000003 0.000723 0.154402 -10.314900 -2.192510 6.469440 -0.000001 -170.096000 7.046500 -178.127000 -39.081100 -0.002282 -0.040193 0.061813 -0.221921 14.763400 -40.985400 0.000008 0.000006 3.037380 2.986900 -69.934500 -11.754300 -0.000006 -0.000006 -0.009967 0.271058 -5.561100
0.000000 0.000000 0.000000 0.000000 0.000000 -0.000000 -3.904700 92.167300 -1.249780 84.249500 -1.203690 2.479650 15.735700 0.000005 -0.000001 61.928500 87.861000 -59.732000 8.984550 -0.406207 -0.000000 -3.946050 -2.236160 4.318250 16.377300 -0.000001 -0.000001 8.708050 1.837830 7.279810 6.456720 -0.000001 -0.000000 4.784080 5.407000 18.757400 12.994200 -0.242716 4.980390 -91.931600 5.879640 -71.777200 5.348090 -0.000007 -0.000001 -74.240400 33.098900 2.174820 24.328600 0.000019 0.000005 12.583900 27.926100 -25.484700 22.291600 -0.000001 0.000005 -3.547840 4.956750 8.225990 12.994500 -0.242716 -4.980390 87.487800 7.179950 -70.657300 -5.348130 -0.000001 -0.000004 -66.817800 -2.367490 -9.824050 -24.328900 0.000322 -0.000009 18.022100 -21.238700 -138.072000 -22.291500 -0.000108 -0.000004 57.226500 5.640590 -14.175600 -2.192480 -6.469440 -0.000000 -171.954000 1.909680 -5.054150 39.081100 -0.000007 -0.000012 0.367240 -0.718815 27.063200 40.985400 -0.000006 -0.000013 -0.031573 5.805840 -75.601600 11.754300 -0.000000 0.000003 0.000787 0.153112 -10.367300 -2.192510 6.469440 -0.000001 -170.082000 7.039490 -178.183000 -39.081100 -0.002282 -0.040193 0.063534 -0.227982 14.792600 -40.985400 0.000008 0.000006 3.157840 3.048400 -69.975400 -11.754300 -0.000006 -0.000006 -0.010136 0.272321 -5.509430
0.000000 0.000000 0.000000 0.000000 0.000000 -0.000000 -3.909750 92.176800 -1.241830 84.279200 -1.225210 2.436490 15.735700 0.000005 -0.000001 62.272300 87.860100 -60.092700 8.984550 -0.406207 -0.000000 -3.933320 -2.212340 4.285760 16.377300 -0.000001 -0.000001 8.677060 1.815330 7.262120 6.456720 -0.000001 -0.000000 4.809220 5.365230 18.663800 12.994200 -0.242716 4.980390 -91.942600 5.914050 -71.779500 5.348090 -0.000007 -0.000001 -74.251300 33.103700 2.216650 24.328600 0.000019 0.000005 12.560100 27.886800 -25.470100 22.291600 -0.000001 0.000005 -3.643810 4.956780 8.225270 12.994500 -0.242716 -4.980390 87.489900 7.164280 -70.633500 -5.348130 -0.000001 -0.000004 -66.776700 -2.264640 -9.735400 -24.328900 0.000322 -0.000009 18.082900 -21.240300 -137.971000 -22.291500 -0.000108 -0.000004 57.221300 5.639330 -14.070500 -2.192480 -6.469440 -0.000000 -171.983000 1.880390 -5.039410 39.081100 -0.000007 -0.000012 0.366390 -0.719545 26.985900 40.985400 -0.000006 -0.000013 -0.035025 5.799170 -75.634600 11.754300 -0.000000 0.000003 0.000694 0.154991 -10.291000 -2.192510 6.469440 -0.000001 -170.130000 7.074200 -178.202000 -39.081100 -0.002282 -0.040193 0.061843 -0.221976 14.767100 -40.985400 0.000008 0.000006 3.050830 3.128590 -69.953900 -11.754300 -0.000006 -0.000006 -0.009914 0.270661 -5.577310
0.000000 0.000000 0.000000 0.000000 0.000000 -0.000000 -3.904320 92.172200 -1.215980 84.257000 -1.277180 2.420930 15.735700 0.000005 -0.000001 62.914000 87.850600 -60.736300 8.984550 -0.406207 -0.000000 -3.895010 -2.177540 4.283650 16.377300 -0.000001 -0.000001 8.708040 1.770990 7.223210 6.456720 -0.000001 -0.000000 4.792250 5.275240 18.557500 12.994200 -0.242716 4.980390 -91.946300 5.919260 -71.762200 5.348090 -0.000007 -0.000001 -74.280400 33.107100 2.270000 24.328600 0.000019 0.000005 12.563400 27.915300 -25.455200 22.291600 -0.000001 0.000005 -3.625630 4.962770 8.101230 12.994500 -0.242716 -4.980390 87.493200 7.146800 -70.613100 -5.348130 -0.000001 -0.000004 -66.809600 -2.208090 -9.676990 -24.328900 0.000322 -0.000009 18.145900 -21.271700 -137.905000 -22.291500 -0.000108 -0.000004 57.173900 5.637090 -13.888300 -2.192480 -6.469440 -0.000000 -171.955000 1.852080 -5.039120 39.081100 -0.000007 -0.000012 0.366342 -0.719017 26.999900 40.985400 -0.000006 -0.000013 -0.032482 5.809550 -75.609600 11.754300 -0.000000 0.000003 0.000794 0.152966 -10.373200 -2.192510 6.469440 -0.000001 -170.110000 7.030890 -178.193000 -39.081100 -0.002282 -0.040193 0.061855 -0.222131 14.760200 -40.985400 0.000008 0.000006 3.078470 3.146860 -69.958400 -11.754300 -0.000006 -0.000006 -0.010061 0.271764 -5.532230
